<svg width="15" height="15" viewBox="0 0 15 15" fill="none" xmlns="http://www.w3.org/2000/svg">
<path d="M6.2344 1.728C6.54755 0.73373 6.70412 0.236598 6.93924 0.103146C7.14253 -0.0122465 7.38885 -0.0122465 7.59214 0.103146C7.82726 0.236598 7.98383 0.73373 8.29698 1.72799L8.5731 2.6047C8.8393 3.44991 8.9724 3.87252 9.22295 4.18517C9.44419 4.46124 9.72934 4.67513 10.052 4.80702C10.4173 4.95638 10.8476 4.95638 11.7082 4.95638H12.6008C13.6149 4.95638 14.122 4.95638 14.3176 5.14619C14.4868 5.3103 14.5629 5.55239 14.5193 5.78783C14.4689 6.06012 14.0585 6.36771 13.2378 6.98289L12.5199 7.52101C11.8225 8.04366 11.4739 8.30499 11.2631 8.64793C11.0769 8.95073 10.9678 9.29722 10.946 9.65522C10.9214 10.0606 11.0546 10.4837 11.3211 11.3299L11.5955 12.2012C11.9089 13.1961 12.0656 13.6936 11.9514 13.9444C11.8527 14.1613 11.6535 14.3109 11.4233 14.3411C11.1571 14.3759 10.7472 14.0687 9.92729 13.4541L9.20209 12.9106C8.5061 12.3889 8.1581 12.1281 7.77769 12.0273C7.4418 11.9383 7.08958 11.9383 6.75368 12.0273C6.37328 12.1281 6.02528 12.3889 5.32929 12.9106L4.60409 13.4541C3.78423 14.0687 3.37429 14.3759 3.10809 14.3411C2.87791 14.3109 2.67866 14.1613 2.57995 13.9444C2.46579 13.6936 2.62247 13.1961 2.93583 12.2012L3.21024 11.3299C3.47675 10.4837 3.61 10.0606 3.58533 9.65522C3.56355 9.29722 3.4545 8.95073 3.26833 8.64793C3.05748 8.30499 2.70883 8.04366 2.01153 7.52101L1.29359 6.9829C0.472836 6.36771 0.0624596 6.06012 0.012065 5.78783C-0.0315085 5.55239 0.0445866 5.3103 0.213747 5.14619C0.409388 4.95638 0.916447 4.95638 1.93056 4.95638H2.82316C3.68375 4.95638 4.11404 4.95638 4.47941 4.80702C4.80204 4.67513 5.08719 4.46124 5.30843 4.18517C5.55898 3.87252 5.69208 3.44992 5.95828 2.6047L6.2344 1.728Z" fill="#E52B50"/>
</svg>
