<svg width="14" height="14" viewBox="0 0 14 14" fill="none" xmlns="http://www.w3.org/2000/svg">
<g clip-path="url(#clip0_144_2941)">
<path d="M6.45105 0.616077C6.6607 0.0928191 7.37472 0.092817 7.58437 0.616077L9.03815 4.24471C9.12653 4.4653 9.32636 4.61602 9.55577 4.63511L13.3293 4.94917C13.8734 4.99446 14.0941 5.69943 13.6795 6.06811L10.8044 8.62479C10.6297 8.78021 10.5533 9.02409 10.6067 9.25648L11.4851 13.0792C11.6118 13.6305 11.0342 14.0662 10.5683 13.7707L7.33761 11.7223C7.14122 11.5977 6.89421 11.5977 6.69781 11.7223L3.46718 13.7707C3.00131 14.0662 2.42365 13.6305 2.55031 13.0792L3.42867 9.25648C3.48206 9.02409 3.40573 8.78021 3.23096 8.62479L0.355953 6.06812C-0.0586344 5.69943 0.162011 4.99446 0.706163 4.94917L4.47965 4.63511C4.70906 4.61602 4.90889 4.4653 4.99727 4.24471L6.45105 0.616077Z" fill="#FF0032"/>
</g>
<defs>
<clipPath id="clip0_144_2941">
<rect width="14" height="14" fill="white"/>
</clipPath>
</defs>
</svg>
