<svg>
  <symbol id="login" width="15" height="17" viewBox="0 0 15 17" fill="none" xmlns="http://www.w3.org/2000/svg">
    <path d="M14 16C14 14.837 14 14.2555 13.8601 13.7824C13.545 12.717 12.7321 11.8834 11.6934 11.5602C11.2321 11.4167 10.6651 11.4167 9.53125 11.4167H5.46875C4.33486 11.4167 3.76791 11.4167 3.30657 11.5602C2.26787 11.8834 1.45503 12.717 1.13994 13.7824C1 14.2555 1 14.837 1 16M11.1562 4.75C11.1562 6.82107 9.51929 8.5 7.5 8.5C5.48071 8.5 3.84375 6.82107 3.84375 4.75C3.84375 2.67893 5.48071 1 7.5 1C9.51929 1 11.1562 2.67893 11.1562 4.75Z" stroke="currentColor" stroke-width="1.5" stroke-linecap="round" stroke-linejoin="round"/>
  </symbol>

  <symbol id="search" width="17" height="17" viewBox="0 0 17 17" fill="none" xmlns="http://www.w3.org/2000/svg">
    <path d="M16 16L12.375 12.375M14.3333 7.66667C14.3333 11.3486 11.3486 14.3333 7.66667 14.3333C3.98477 14.3333 1 11.3486 1 7.66667C1 3.98477 3.98477 1 7.66667 1C11.3486 1 14.3333 3.98477 14.3333 7.66667Z" stroke="currentColor" stroke-width="1.5" stroke-linecap="round" stroke-linejoin="round"/>
  </symbol>


  <symbol id="shop" width="18" height="19" viewBox="0 0 18 19" fill="none" xmlns="http://www.w3.org/2000/svg">
    <path d="M12.4925 6.95V4.4C12.4925 2.52223 10.9289 1 9 1C7.07114 1 5.5075 2.52223 5.5075 4.4V6.95M1.65876 8.09917L1.13488 13.5392C0.985929 15.0859 0.911453 15.8593 1.17509 16.4566C1.40668 16.9814 1.81253 17.4153 2.32759 17.6887C2.9139 18 3.71179 18 5.30759 18H12.6924C14.2882 18 15.0861 18 15.6724 17.6887C16.1875 17.4153 16.5933 16.9814 16.8249 16.4566C17.0885 15.8593 17.0141 15.0859 16.8651 13.5392L16.3412 8.09917C16.2155 6.79305 16.1526 6.13998 15.8508 5.64624C15.5851 5.2114 15.1925 4.86334 14.723 4.64637C14.1899 4.4 13.5161 4.4 12.1685 4.4L5.83147 4.4C4.48392 4.4 3.81015 4.4 3.27702 4.64637C2.8075 4.86334 2.41489 5.2114 2.14916 5.64624C1.84743 6.13998 1.78454 6.79304 1.65876 8.09917Z" stroke="currentColor" stroke-width="1.5" stroke-linecap="round" stroke-linejoin="round"/>
  </symbol>

  <symbol id="wup" width="22" height="22" viewBox="0 0 22 22" fill="none" xmlns="http://www.w3.org/2000/svg">
    <path d="M9.27564 9.70478C9.62583 10.4342 10.1032 11.1177 10.7078 11.7223C11.3123 12.3269 11.9959 12.8043 12.7253 13.1544C12.788 13.1846 12.8194 13.1996 12.8591 13.2112C13.0002 13.2523 13.1734 13.2228 13.2928 13.1372C13.3264 13.1132 13.3552 13.0844 13.4127 13.0269C13.5886 12.851 13.6766 12.763 13.765 12.7055C14.0985 12.4887 14.5285 12.4887 14.8621 12.7055C14.9505 12.763 15.0384 12.851 15.2143 13.0269L15.3124 13.1249C15.5798 13.3923 15.7135 13.526 15.7861 13.6696C15.9305 13.9552 15.9305 14.2924 15.7861 14.578C15.7135 14.7216 15.5798 14.8553 15.3124 15.1227L15.2331 15.202C14.9666 15.4685 14.8334 15.6017 14.6522 15.7035C14.4512 15.8164 14.139 15.8976 13.9085 15.8969C13.7007 15.8963 13.5587 15.856 13.2747 15.7753C11.7485 15.3422 10.3083 14.5248 9.10677 13.3233C7.90527 12.1218 7.08793 10.6816 6.65474 9.15539C6.57413 8.87139 6.53383 8.72939 6.53321 8.52162C6.53252 8.29107 6.61371 7.97887 6.72663 7.77786C6.82839 7.59672 6.96162 7.46348 7.2281 7.197L7.30741 7.11769C7.57481 6.8503 7.7085 6.7166 7.85209 6.64397C8.13766 6.49954 8.4749 6.49954 8.76046 6.64397C8.90405 6.7166 9.03775 6.85029 9.30514 7.11769L9.40319 7.21574C9.57909 7.39164 9.66704 7.47959 9.72454 7.56803C9.94139 7.90156 9.94139 8.33154 9.72454 8.66507C9.66704 8.75351 9.57909 8.84146 9.40319 9.01736C9.34567 9.07488 9.31691 9.10364 9.29284 9.13725C9.2073 9.25671 9.17777 9.42993 9.21888 9.57098C9.23046 9.61068 9.24552 9.64205 9.27564 9.70478Z" stroke="currentColor" stroke-linecap="round" stroke-linejoin="round" />
    <path d="M21 11C21 16.5228 16.5228 21 11 21C9.66984 21 8.40034 20.7403 7.23943 20.2688C7.01725 20.1786 6.90616 20.1335 6.81636 20.1133C6.72851 20.0937 6.6635 20.0864 6.57348 20.0864C6.48145 20.0864 6.38121 20.1031 6.18072 20.1365L2.22751 20.7954C1.81354 20.8644 1.60655 20.8989 1.45687 20.8347C1.32587 20.7785 1.22148 20.6741 1.16529 20.5431C1.10109 20.3935 1.13559 20.1865 1.20459 19.7725L1.86345 15.8193C1.89687 15.6188 1.91357 15.5186 1.91356 15.4265C1.91355 15.3365 1.90635 15.2715 1.88666 15.1836C1.86653 15.0938 1.82142 14.9828 1.73118 14.7606C1.25971 13.5997 1 12.3302 1 11C1 5.47715 5.47715 1 11 1C16.5228 1 21 5.47715 21 11Z" stroke="currentColor" stroke-linecap="round" stroke-linejoin="round" />
  </symbol>

  <symbol id="tg" width="22" height="22" viewBox="0 0 22 22" fill="none" xmlns="http://www.w3.org/2000/svg">
    <path d="M9.44688 12.5531L20.3661 1.63389M9.57955 12.8943L12.3126 19.9221C12.5534 20.5412 12.6738 20.8508 12.8472 20.9412C12.9976 21.0195 13.1767 21.0196 13.3272 20.9414C13.5007 20.8513 13.6215 20.5419 13.863 19.923L20.7165 2.361C20.9345 1.80237 21.0435 1.52306 20.9838 1.34458C20.9321 1.18958 20.8104 1.06794 20.6554 1.01616C20.4769 0.956533 20.1976 1.06553 19.639 1.28353L2.07697 8.13701C1.45814 8.3785 1.14872 8.49925 1.05855 8.67282C0.980383 8.82329 0.980488 9.00241 1.05883 9.15279C1.14921 9.32625 1.45877 9.44663 2.07788 9.6874L9.10572 12.4204C9.23139 12.4693 9.29423 12.4938 9.34714 12.5315C9.39404 12.5649 9.43505 12.606 9.4685 12.6529C9.50624 12.7058 9.53068 12.7686 9.57955 12.8943Z" stroke="currentColor" stroke-linecap="round" stroke-linejoin="round" />
  </symbol>

  <symbol id="in" width="22" height="22" viewBox="0 0 22 22" fill="none" xmlns="http://www.w3.org/2000/svg">
    <path d="M6.38827 1.5H15.6117C18.3117 1.5 20.5 3.68865 20.5 6.38869V15.6113C20.5 18.3113 18.3113 20.5 15.6113 20.5H6.38869C3.6887 20.5 1.5 18.3113 1.5 15.6113V6.38869C1.5 3.68864 3.68832 1.5 6.38827 1.5Z" stroke="currentColor" />
    <path d="M15.6117 1H6.38827C3.41213 1 1 3.41255 1 6.38869V15.6113C1 18.5874 3.41255 21 6.38869 21H15.6113C18.5874 21 21 18.5874 21 15.6113V6.38869C21 3.41255 18.5879 1 15.6117 1Z" stroke="currentColor" stroke-miterlimit="10" />
    <path d="M10.9981 15.8282C13.6643 15.8282 15.8258 13.6668 15.8258 11.0005C15.8258 8.33428 13.6643 6.17285 10.9981 6.17285C8.33183 6.17285 6.17041 8.33428 6.17041 11.0005C6.17041 13.6668 8.33183 15.8282 10.9981 15.8282Z" stroke="currentColor" stroke-miterlimit="10" />
    <path d="M16.864 6.17325C17.4352 6.17325 17.8983 5.71014 17.8983 5.13887C17.8983 4.5676 17.4352 4.10449 16.864 4.10449C16.2927 4.10449 15.8296 4.5676 15.8296 5.13887C15.8296 5.71014 16.2927 6.17325 16.864 6.17325Z" fill="#111111" />
  </symbol>

  <symbol id="next" width="57" height="14" viewBox="0 0 57 14" fill="none" xmlns="http://www.w3.org/2000/svg">
    <path d="M56 7H0.999997M0.999997 7L7.11111 13M0.999997 7L7.11111 1" stroke="currentColor" stroke-linecap="round" stroke-linejoin="round" />
  </symbol>

  <symbol id="prev" width="57" height="14" viewBox="0 0 57 14" fill="none" xmlns="http://www.w3.org/2000/svg">
    <path d="M1 7H56M56 7L49.8889 1M56 7L49.8889 13" stroke="currentColor" stroke-linecap="round" stroke-linejoin="round" />
  </symbol>

  <symbol id="all" width="24" height="14" viewBox="0 0 24 14" fill="none" xmlns="http://www.w3.org/2000/svg">
    <path d="M1 7H23M23 7L17.0247 1M23 7L17.0247 13" stroke="currentColor" stroke-linecap="round" stroke-linejoin="round" />
  </symbol>

  <symbol id="conditionProduct" width="45" height="45" viewBox="0 0 45 45" fill="none" xmlns="http://www.w3.org/2000/svg">
    <circle cx="22.5" cy="22.5" r="22.5" fill="currentColor" />
    <path d="M26.4925 19.95V17.4C26.4925 15.5222 24.9289 14 23 14C21.0711 14 19.5075 15.5222 19.5075 17.4V19.95M15.6588 21.0992L15.1349 26.5392C14.9859 28.0859 14.9115 28.8593 15.1751 29.4566C15.4067 29.9814 15.8125 30.4153 16.3276 30.6887C16.9139 31 17.7118 31 19.3076 31H26.6924C28.2882 31 29.0861 31 29.6724 30.6887C30.1875 30.4153 30.5933 29.9814 30.8249 29.4566C31.0885 28.8593 31.0141 28.0859 30.8651 26.5392L30.3412 21.0992C30.2155 19.793 30.1526 19.14 29.8508 18.6462C29.5851 18.2114 29.1925 17.8633 28.723 17.6464C28.1899 17.4 27.5161 17.4 26.1685 17.4L19.8315 17.4C18.4839 17.4 17.8101 17.4 17.277 17.6464C16.8075 17.8633 16.4149 18.2114 16.1492 18.6462C15.8474 19.14 15.7845 19.793 15.6588 21.0992Z" stroke="#FDFDFD" stroke-width="1.5" stroke-linecap="round" stroke-linejoin="round" />
  </symbol>

  <symbol id="smallConditionProduct" width="30" height="30" viewBox="0 0 30 30" fill="none" xmlns="http://www.w3.org/2000/svg">
    <circle cx="15" cy="15" r="15" fill="currentColor" />
    <path d="M18.7742 12.6V10.2C18.7742 8.43269 17.3083 7 15.5 7C13.6917 7 12.2258 8.43269 12.2258 10.2V12.6M8.61759 13.6816L8.12645 18.8016C7.98681 20.2573 7.91699 20.9852 8.16414 21.5474C8.38126 22.0413 8.76175 22.4497 9.24461 22.707C9.79428 23 10.5423 23 12.0384 23H18.9616C20.4577 23 21.2057 23 21.7554 22.707C22.2383 22.4497 22.6187 22.0413 22.8359 21.5474C23.083 20.9852 23.0132 20.2573 22.8735 18.8016L22.3824 13.6816C22.2645 12.4523 22.2055 11.8376 21.9227 11.3729C21.6735 10.9637 21.3055 10.6361 20.8653 10.4319C20.3655 10.2 19.7338 10.2 18.4705 10.2L12.5295 10.2C11.2662 10.2 10.6345 10.2 10.1347 10.4319C9.69453 10.6361 9.32646 10.9637 9.07733 11.3729C8.79447 11.8376 8.73551 12.4523 8.61759 13.6816Z" stroke="#FDFDFD" stroke-width="1.5" stroke-linecap="round" stroke-linejoin="round" />
  </symbol>

  <symbol id="checkbox" width="17" height="13" viewBox="0 0 17 13" fill="none" xmlns="http://www.w3.org/2000/svg">
    <path d="M1 5.5L5.5 11.5L16 1" stroke="black" stroke-width="1.5" stroke-linecap="round" />
  </symbol>
</svg>